<svg width="160" height="28" fill="none" xmlns="http://www.w3.org/2000/svg">
    <path fill-rule="evenodd" clip-rule="evenodd" d="M12.361 22.697L3.442.832C3.22.28 2.907 0 2.487 0H.684C.23 0 0 .181 0 .56c0 .058.008.115.025.173.024.058.033.09.033.123L10.82 26.798c.025.057.058.131.099.206.05.082.107.156.181.238.074.075.157.132.255.19a.727.727 0 0 0 .371.082h1.005c.197 0 .395-.058.61-.181.213-.124.345-.338.41-.634l4.91-11.76 4.965 11.875c.025.132.099.288.23.453.132.165.355.247.676.247h1.128c.148 0 .28-.033.395-.099a.974.974 0 0 0 .256-.222c.066-.082.107-.157.148-.23l.058-.116a.314.314 0 0 0 .074-.148l10.78-25.9A.287.287 0 0 0 37.4.726l.013-.042.004-.025A.624.624 0 0 0 37.43.56a.466.466 0 0 0-.206-.412C37.093.05 36.895 0 36.632 0h-1.557c-.272 0-.477.066-.626.198a1.437 1.437 0 0 0-.37.527c-1.5 3.69-2.99 7.354-4.489 10.994l-.336.82c-1.38 3.37-2.765 6.753-4.144 10.158l-.713-1.727v-.001a3936.72 3936.72 0 0 0-1.691-4.087c-.79-1.927-1.59-3.87-2.397-5.822L24.55.856c.042-.131.058-.222.058-.296 0-.181-.05-.313-.148-.412C24.36.05 24.195 0 23.956 0h-2.05a.639.639 0 0 0-.412.14.795.795 0 0 0-.255.379L12.36 22.697zM44.882 0c-.543 0-.815.28-.815.856V26.74c0 .519.272.774.815.774H62.86c.544 0 .815-.272.815-.815v-1.532c0-.585-.28-.873-.831-.873H47.279v-9.66h12.246c.272 0 .47-.082.61-.255a.912.912 0 0 0 .205-.593V12.27c0-.305-.082-.52-.239-.651a.854.854 0 0 0-.576-.206H47.279V3.228H62.67c.288 0 .502-.09.65-.263a.885.885 0 0 0 .223-.593v-1.5c0-.584-.28-.872-.832-.872h-17.83zm56.42 21.494H87.829l-2.091 5.279c-.198.494-.536.741-1.022.741h-1.589c-.535 0-.799-.197-.799-.593 0-.107.008-.222.033-.346a.394.394 0 0 1 .058-.131l3.533-8.5c.954-2.31 1.798-4.329 2.526-6.07l.134-.32a940.43 940.43 0 0 1 1.902-4.57L91.8 3.92l.011-.027a80.193 80.193 0 0 1 1.005-2.397v-.001h.001c.068-.16.123-.289.169-.391.056-.143.098-.241.123-.303l.025-.06.016-.057c.05-.132.132-.28.248-.445.115-.157.345-.239.675-.239h1.095c.313 0 .519.082.642.239.116.165.206.313.264.445l10.673 25.776c0 .01.01.04.029.09l.001.002.001.001.035.096a.81.81 0 0 1 .066.272c0 .198-.074.346-.231.445-.156.099-.354.148-.601.148h-1.598a1 1 0 0 1-.617-.19 1.237 1.237 0 0 1-.379-.51l-2.15-5.32zm-6.687-16.71l5.386 13.564H89.163l5.452-13.563zm34.325 7.833a5.644 5.644 0 0 0 1.161-1.771 5.29 5.29 0 0 0 .428-2.117c0-.74-.14-1.449-.428-2.116a5.965 5.965 0 0 0-1.169-1.77 5.634 5.634 0 0 0-1.754-1.22 5.302 5.302 0 0 0-2.191-.452h-8.318v11.1h8.376c.774 0 1.499-.148 2.166-.444a5.5 5.5 0 0 0 1.729-1.21zm-15.474 14.082c0 .543.263.815.815.815h1.573c.544 0 .815-.272.815-.815v-9.265h7.947c.248 0 .445 0 .593-.008.149-.008.289-.017.429-.041l4.48 9.43c.098.221.222.394.362.518.14.123.338.181.585.181h1.869c.214 0 .379-.041.494-.14a.416.416 0 0 0 .173-.337.907.907 0 0 0-.09-.338l-4.876-10.039a8.55 8.55 0 0 0 2.059-1.326 8.947 8.947 0 0 0 1.598-1.836 9.075 9.075 0 0 0 1.037-2.232 8.523 8.523 0 0 0 .371-2.52c0-1.202-.231-2.33-.684-3.393a8.577 8.577 0 0 0-1.852-2.784 8.705 8.705 0 0 0-2.759-1.885A8.559 8.559 0 0 0 124.987 0h-10.706c-.255 0-.445.074-.593.23-.156.157-.222.371-.222.66v25.809zM159.089.206a.911.911 0 0 0-.593-.206h-19.064c-.256 0-.453.074-.61.222a.807.807 0 0 0-.23.593v1.516c0 .313.082.535.23.683.157.14.354.214.61.214h7.947v23.454c0 .247.074.445.239.602.164.156.362.23.609.23h1.507c.28 0 .494-.074.634-.239a.873.873 0 0 0 .214-.593V3.228h7.914c.28 0 .503-.09.659-.263a.934.934 0 0 0 .231-.634V.815c-.025-.271-.124-.477-.297-.61z" fill="#393C49"/>
</svg>
