<?xml version="1.0" encoding="utf-8"?><svg xmlns="http://www.w3.org/2000/svg" xmlns:xlink="http://www.w3.org/1999/xlink"><symbol viewBox="0 0 18 18" id="Group-5" xmlns="http://www.w3.org/2000/svg"><path d="M8.246 6.1a2.165 2.165 0 1 1-4.33 0 2.165 2.165 0 0 1 4.33 0zm5.844 0a2.165 2.165 0 1 1-4.33 0 2.165 2.165 0 0 1 4.33 0zm-5.844 5.8a2.165 2.165 0 1 1-4.33-.001 2.165 2.165 0 0 1 4.33 0zm5.844 0a2.165 2.165 0 1 1-4.33-.001 2.165 2.165 0 0 1 4.33 0z"/><path fill-rule="evenodd" clip-rule="evenodd" d="M17.83 9c0-4.868-3.96-8.828-8.827-8.828C4.135.172.175 4.132.175 9c0 4.787 3.83 8.695 8.585 8.824l.243.004c4.868 0 8.828-3.96 8.828-8.828zM.963 9c0-4.354 3.482-7.912 7.808-8.035l.233-.003c4.434 0 8.04 3.606 8.04 8.038s-3.606 8.038-8.04 8.038C4.569 17.038.962 13.432.962 9z"/></symbol></svg>